<svg id="GD001" height="512" viewBox="0 0 512 512" width="512" xmlns="http://www.w3.org/2000/svg" xmlns:xlink="http://www.w3.org/1999/xlink"><linearGradient id="New_Gradient_Swatch_2" gradientUnits="userSpaceOnUse" x1="257.171" x2="257.171" y1="29.239" y2="458.84"><stop offset="0" stop-color="#fc5c7d"/><stop offset=".129" stop-color="#f35e85"/><stop offset=".343" stop-color="#d9659b"/><stop offset=".616" stop-color="#b070bf"/><stop offset=".934" stop-color="#777ff0"/><stop offset="1" stop-color="#6a82fb"/></linearGradient><linearGradient id="New_Gradient_Swatch_2-2" x1="408" x2="408" xlink:href="#New_Gradient_Swatch_2" y1="29.239" y2="458.84"/><linearGradient id="New_Gradient_Swatch_2-3" x1="320" x2="320" xlink:href="#New_Gradient_Swatch_2" y1="29.239" y2="458.84"/><linearGradient id="New_Gradient_Swatch_2-4" x1="400" x2="400" xlink:href="#New_Gradient_Swatch_2" y1="29.239" y2="458.84"/><path d="m424 104h-24v-24h24a24 24 0 0 0 0-48h-64a8 8 0 0 0 -8 8v64h-136a72.282 72.282 0 0 0 -59.872 32h-52.128a8 8 0 0 0 -8 8v64h-24a32.036 32.036 0 0 0 -32 32v68.687l-21.657 21.656 11.314 11.314 24-24a8 8 0 0 0 2.343-5.657v-72a16.019 16.019 0 0 1 16-16h24v20.686l-13.657 13.657 11.314 11.314 36-36a8.97 8.97 0 0 1 12.686 12.686l-36 36a8 8 0 0 0 0 11.314 37.3 37.3 0 0 1 0 52.686l-40 40 11.314 11.314 40-40a53.071 53.071 0 0 0 15.56-37.657h10.783v24a8 8 0 0 0 8 8h144v8a24.028 24.028 0 0 0 24 24h8v112h16v-112h32v112h16v-112h8a24.028 24.028 0 0 0 24-24v-8h64a8 8 0 0 0 8-8v-168a72.081 72.081 0 0 0 -72-72zm-56-56h56a8 8 0 0 1 0 16h-32a8 8 0 0 0 -8 8v136a8 8 0 0 0 8 8h16a24 24 0 0 1 0 48h-16a24.027 24.027 0 0 1 -24-24zm-96 288h-112v-16h96v-16h-125.226a52.824 52.824 0 0 0 -7.884-15.576l30.767-30.767a24.971 24.971 0 1 0 -35.314-35.314l-6.343 6.343v-71.435l140.274 73.829 7.452-14.16-123.349-64.92h111.623v-16h-71.164a55.98 55.98 0 0 1 95.164 40zm136 24a8.009 8.009 0 0 1 -8 8h-80a8.009 8.009 0 0 1 -8-8v-8h96zm72-24h-192v-160a71.883 71.883 0 0 0 -26.815-56h90.815v120a40.045 40.045 0 0 0 40 40h16a40 40 0 0 0 0-80h-8v-80h24a56.063 56.063 0 0 1 56 56z" fill="url(#New_Gradient_Swatch_2)"/><path d="m400 232h16v16h-16z" fill="url(#New_Gradient_Swatch_2-2)"/><path d="m312 296h16v16h-16z" fill="url(#New_Gradient_Swatch_2-3)"/><path d="m344 296h112v16h-112z" fill="url(#New_Gradient_Swatch_2-4)"/></svg>