<svg id="Layer_1" data-name="Layer 1" xmlns="http://www.w3.org/2000/svg" xmlns:xlink="http://www.w3.org/1999/xlink" viewBox="0 0 200 200"><defs><style>.cls-1{fill:none;}.cls-2{clip-path:url(#clip-path);}.cls-3{fill:#ebe7f2;}.cls-4{fill:#a58bc9;}.cls-5{fill:#846f75;}.cls-6{fill:#65c1d6;}.cls-7{fill:#ed9abc;}.cls-8{fill:#f9b087;}</style><clipPath id="clip-path"><rect class="cls-1" width="200" height="200"/></clipPath></defs><title>tile 3</title><g class="cls-2"><path class="cls-3" d="M25.00789,171.44309H70.90644v3.31277H25.00788Z"/><path class="cls-4" d="M64.27889,126.40413H31.49169a1.6826,1.6826,0,0,1,0-3.3652h32.7872a1.6826,1.6826,0,0,1,0,3.3652Z"/><path class="cls-3" d="M78.71219,165.88887l-6.62179-6.6215a2.13114,2.13114,0,0,1-.03054-2.98293c-.013.01239-.02621.02506-.03888.038l-1.50688,1.50688a2.13176,2.13176,0,0,0,0,3.01434l6.62179,6.62179a2.13123,2.13123,0,0,0,3.01433,0l1.50688-1.50688.03025-.03111a2.13174,2.13174,0,0,1-2.97516-.0386Z"/><path class="cls-5" d="M70.90674,165.68175a.72007.72007,0,0,0-.72017.72017v7.63377H25.72806V116.99845H70.18657v13.39511a.72017.72017,0,1,0,1.44033,0V116.27829a.72006.72006,0,0,0-.72016-.72017H25.00789a.72007.72007,0,0,0-.72017.72017v58.47757a.72007.72007,0,0,0,.72017.72017H70.90674a.72006.72006,0,0,0,.72016-.72017v-8.35394A.72006.72006,0,0,0,70.90674,165.68175Z"/><path class="cls-5" d="M30.83778,161.06289H47.56035a.72017.72017,0,1,0,0-1.44033H30.83778a.72017.72017,0,0,0,0,1.44033Z"/><path class="cls-5" d="M48.28052,164.1455a.72007.72007,0,0,0-.72017-.72017H30.83778a.72017.72017,0,0,0,0,1.44033H47.56035A.72024.72024,0,0,0,48.28052,164.1455Z"/><path class="cls-5" d="M30.83778,167.22781a.72017.72017,0,0,0,0,1.44034H38.5744a.72017.72017,0,0,0,0-1.44034Z"/><path class="cls-5" d="M65.08433,164.1455a.72007.72007,0,0,0-.72017-.72017H50.52226a.72017.72017,0,1,0,0,1.44033h13.8419A.72024.72024,0,0,0,65.08433,164.1455Z"/><path class="cls-5" d="M41.49626,168.66815h7.73661a.72017.72017,0,1,0,0-1.44034H41.49626a.72017.72017,0,0,0,0,1.44034Z"/><path class="cls-5" d="M52.49091,167.22781a.72017.72017,0,0,0,0,1.44034h7.73661a.72017.72017,0,1,0,0-1.44034Z"/><path class="cls-5" d="M30.83778,146.4677H38.5744a.72017.72017,0,0,0,0-1.44034H30.83778a.72017.72017,0,0,0,0,1.44034Z"/><path class="cls-5" d="M30.83778,150.27018H38.5744a.72017.72017,0,0,0,0-1.44034H30.83778a.72017.72017,0,0,0,0,1.44034Z"/><path class="cls-5" d="M30.83778,154.07266H42.77211a.72017.72017,0,0,0,0-1.44034H30.83778a.72017.72017,0,0,0,0,1.44034Z"/><path class="cls-5" d="M30.83778,135.675H42.38811a.72017.72017,0,1,0,0-1.44033H30.83778a.72017.72017,0,0,0,0,1.44033Z"/><path class="cls-5" d="M30.83778,139.47746H41.52391a.72017.72017,0,1,0,0-1.44033H30.83778a.72017.72017,0,0,0,0,1.44033Z"/><path class="cls-5" d="M82.16612,162.43466l-6.6218-6.6215a2.85476,2.85476,0,0,0-4.03264,0L70.00509,157.32a2.85171,2.85171,0,0,0,0,4.03265l6.62179,6.62179a2.85451,2.85451,0,0,0,4.03265,0l1.50688-1.50688A2.85538,2.85538,0,0,0,82.16612,162.43466Zm-1.018,3.01434-1.50688,1.50688a1.41143,1.41143,0,0,1-1.996,0l-6.6218-6.6218a1.41075,1.41075,0,0,1,0-1.99544L72.53,156.83148a1.41282,1.41282,0,0,1,1.996,0l6.62179,6.6215A1.41343,1.41343,0,0,1,81.14809,165.449Z"/><path class="cls-5" d="M58.506,128.85154a15.46257,15.46257,0,1,0,8.73131,28.226l.53177.53177a.72006.72006,0,0,0,1.01832-1.01832l-.96359-.96358a.72009.72009,0,0,0-.94-.068,14.02039,14.02039,0,1,1,2.86741-2.86742.72048.72048,0,0,0,.068.94l.96358.96359a.72006.72006,0,0,0,1.01832-1.01832l-.53177-.53177a15.32549,15.32549,0,0,0,2.6989-8.731A15.47975,15.47975,0,0,0,58.506,128.85155Z"/><path class="cls-5" d="M58.506,132.64855a11.666,11.666,0,1,0,11.66584,11.66584A11.6791,11.6791,0,0,0,58.506,132.64855Zm0,21.89136a10.22566,10.22566,0,1,1,10.22552-10.2258A10.2372,10.2372,0,0,1,58.506,154.53991Z"/><path class="cls-4" d="M58.32772,141.52015H54.63758a1.00824,1.00824,0,0,1,0-2.01647h3.69014a1.00824,1.00824,0,0,1,0,2.01647Z"/><path class="cls-4" d="M62.37448,145.32263h-7.7369a1.00824,1.00824,0,0,1,0-2.01647h7.73661a1.00824,1.00824,0,0,1,.00029,2.01647Z"/><path class="cls-4" d="M62.37448,149.12511h-7.7369a1.00824,1.00824,0,0,1,0-2.01647h7.73661a1.00824,1.00824,0,0,1,.00029,2.01647Z"/><path class="cls-3" d="M136.395,106.43285H107.67144a.66756.66756,0,0,1,0-1.33511H136.395a.66756.66756,0,0,1,0,1.33511Z"/><path class="cls-6" d="M130.32289,81.24951a.66756.66756,0,0,1-.4721-1.13965l6.98556-6.98689a.66755.66755,0,0,1,.96027.92757l-.01635.01635-6.98555,6.98662a.66543.66543,0,0,1-.47183.196Z"/><path class="cls-5" d="M153.84856,92.99339,138.81978,77.9646l2.97516-2.97515a3.04137,3.04137,0,0,0,3.94177-4.60879L135.2505,59.89418a3.04138,3.04138,0,0,0-4.60906,3.94231L120.034,74.44392a3.04111,3.04111,0,0,0-3.94178,4.60853l10.48621,10.48648a3.04138,3.04138,0,0,0,4.60879-3.942l2.97516-2.97516,15.029,15.029a3.29318,3.29318,0,1,0,4.65712-4.65739Zm-21.958-32.155a1.70894,1.70894,0,0,1,2.416,0l10.487,10.48621a1.70894,1.70894,0,0,1-2.416,2.416l-.13832-.13858L132.03,63.393l-.13858-.13885a1.70894,1.70894,0,0,1-.0008-2.41575Zm-.33324,3.97061,9.26565,9.26566-3.41788,3.41787-1.8566,1.85661-5.27528,5.27527-9.26565-9.26565Zm-1.619,23.786a1.71052,1.71052,0,0,1-2.416,0L117.03615,78.10853a1.70894,1.70894,0,0,1,2.41708-2.416L129.93944,86.179A1.71053,1.71053,0,0,1,129.93837,88.595Zm22.96627,8.11185a1.96047,1.96047,0,0,1-2.76928,0l-15.02878-15.029,1.3845-1.38477,1.38478-1.38451,15.02878,15.029a1.961,1.961,0,0,1,0,2.76928Z"/><path class="cls-5" d="M136.50978,100.02433h-2.67742a4.85445,4.85445,0,0,0-4.79918-4.18316H115.14805a4.85474,4.85474,0,0,0-4.80025,4.18316h-2.67635a.66756.66756,0,0,0-.66756.66755v7.5658a.66756.66756,0,0,0,.66756.66755h28.83833a.66756.66756,0,0,0,.66756-.66755v-7.5658a.66756.66756,0,0,0-.66756-.66755Zm-21.36173-2.84805h13.88512a3.52149,3.52149,0,0,1,3.45073,2.84805H111.69573a3.52174,3.52174,0,0,1,3.45232-2.84805Zm20.69418,10.41384H108.339v-6.23068h27.50323Z"/><path class="cls-6" d="M118.38755,88.77231a.66464.66464,0,0,1-.47182-.19573l-3.57489-3.57489a.66755.66755,0,0,1,.92757-.96027l.01635.01635,3.57489,3.57489a.66756.66756,0,0,1-.47209,1.13965Z"/><path class="cls-6" d="M116.57955,93.13758h-5.05686a.66756.66756,0,0,1,0-1.33511h5.05686a.66756.66756,0,0,1,0,1.33511Z"/><path class="cls-3" d="M221.16464,51.97923H177.63707a.83536.83536,0,0,1,0-1.67072h43.52757a.83536.83536,0,1,1,0,1.67072Z"/><path class="cls-5" d="M221.16464,41.95491h-5.65171V38.33514a.83536.83536,0,0,0-1.67072,0v3.61977h-8.51364V38.33514a.83536.83536,0,1,0-1.67072,0v3.61977h-8.514V38.33514a.83536.83536,0,1,0-1.67072,0v3.61977H184.9595V38.33514a.83536.83536,0,1,0-1.67072,0v3.61977h-5.65171a.83537.83537,0,0,0-.83536.83536V96.699a.83536.83536,0,0,0,.83536.83536h43.52757A.83536.83536,0,0,0,222,96.699V42.79027a.83536.83536,0,0,0-.83536-.83536Zm-.83536,53.90874H178.47244v-52.238h4.81634V46.8558a.83536.83536,0,1,0,1.67072,0V43.62563h8.51365V46.8558a.83536.83536,0,1,0,1.67072,0V43.62563h8.514V46.8558a.83536.83536,0,1,0,1.67072,0V43.62563h8.51364V46.8558a.83536.83536,0,0,0,1.67072,0V43.62563h4.81635Z"/><path class="cls-7" d="M195.2518,61.33525h-8.242a.83536.83536,0,0,1,0-1.67072h8.242a.83536.83536,0,1,1,0,1.67072Z"/><path class="cls-7" d="M203.10417,68.12973H187.00981a.83536.83536,0,0,1,0-1.67072h16.09436a.83536.83536,0,0,1,0,1.67072Z"/><path class="cls-7" d="M190.65732,74.92387h-3.64751a.83536.83536,0,1,1,0-1.67072h3.64751a.83536.83536,0,1,1,0,1.67072Z"/><path class="cls-7" d="M201.85113,81.718H187.00981a.83536.83536,0,0,1,0-1.67072h14.84132a.83536.83536,0,0,1,0,1.67072Z"/><path class="cls-7" d="M208.86815,88.5125H187.00981a.83536.83536,0,0,1,0-1.67072h21.85834a.83536.83536,0,0,1,0,1.67072Z"/><path class="cls-7" d="M211.79191,61.33525h-11.6115a.83536.83536,0,0,1,0-1.67072h11.6115a.83536.83536,0,1,1,0,1.67072Z"/><path class="cls-7" d="M198.42616,74.92387h-4.34387a.83536.83536,0,0,1,0-1.67072h4.34387a.83536.83536,0,0,1,0,1.67072Z"/><path class="cls-3" d="M21.16478,51.97923H-22.36278a.83536.83536,0,0,1-.83536-.83536.83536.83536,0,0,1,.83536-.83536H21.16478a.83536.83536,0,0,1,0,1.67072Z"/><path class="cls-5" d="M21.16478,41.95491h-5.6517V38.33514a.83536.83536,0,1,0-1.67072,0v3.61977H5.32871V38.33514a.83536.83536,0,0,0-1.67072,0v3.61977H-4.856V38.33514a.83536.83536,0,0,0-.83536-.83536.83536.83536,0,0,0-.83536.83536v3.61977h-8.51365V38.33514a.83536.83536,0,0,0-.83536-.83536.83536.83536,0,0,0-.83536.83536v3.61977h-5.6517a.83536.83536,0,0,0-.83536.83536V96.699a.83536.83536,0,0,0,.83536.83536H21.16478a.83536.83536,0,0,0,.83536-.83536V42.79027a.83536.83536,0,0,0-.83536-.83536Zm-.83536,53.90874H-21.52742v-52.238h4.81635V46.8558a.83536.83536,0,0,0,.83536.83536.83536.83536,0,0,0,.83535-.83536V43.62563h8.51365V46.8558a.83536.83536,0,0,0,.83536.83536A.83536.83536,0,0,0-4.856,46.8558V43.62563H3.658V46.8558a.83536.83536,0,1,0,1.67072,0V43.62563h8.51365V46.8558a.83536.83536,0,1,0,1.67072,0V43.62563h4.81634Z"/><path class="cls-7" d="M3.10431,68.12973H-12.99a.83536.83536,0,0,1-.83536-.83536A.83536.83536,0,0,1-12.99,66.459H3.10431a.83536.83536,0,1,1,0,1.67072Z"/><path class="cls-7" d="M1.85128,81.718H-12.99a.83536.83536,0,0,1-.83536-.83536.83536.83536,0,0,1,.83536-.83536H1.85128a.83536.83536,0,1,1,0,1.67072Z"/><path class="cls-7" d="M8.86829,88.5125H-12.99a.83536.83536,0,0,1-.83536-.83536.83536.83536,0,0,1,.83536-.83536H8.86829a.83536.83536,0,1,1,0,1.67072Z"/><path class="cls-7" d="M11.79205,61.33525H.18056a.83536.83536,0,0,1,0-1.67072H11.79205a.83536.83536,0,0,1,0,1.67072Z"/><path class="cls-7" d="M10.20487,68.12973H7.114a.83536.83536,0,1,1,0-1.67072h3.09083a.83536.83536,0,1,1,0,1.67072Z"/><path class="cls-7" d="M11.79205,74.92387H2.18542a.83536.83536,0,0,1,0-1.67072h9.60663a.83536.83536,0,1,1,0,1.67072Z"/><path class="cls-7" d="M11.79205,81.718H5.9863a.83536.83536,0,0,1,0-1.67072h5.80575a.83536.83536,0,1,1,0,1.67072Z"/><path class="cls-3" d="M56.00366,91.17927H75.20783a2.57327,2.57327,0,0,1,1.86088.79255H77.789a2.58115,2.58115,0,0,0-2.58119-2.58119H56.00366a2.58114,2.58114,0,0,0-2.58119,2.58119h.7203a2.57434,2.57434,0,0,1,1.86089-.79255Z"/><path class="cls-3" d="M62.975,66.04416H68.2365v3.01016H62.975Z"/><path class="cls-3" d="M47.56851,77.2034a8.64235,8.64235,0,0,1-7.93367-5.21274h-.7066a8.64027,8.64027,0,0,0,17.28054,0h-.7066A8.64276,8.64276,0,0,1,47.56851,77.2034Z"/><path class="cls-3" d="M83.643,77.2034a8.64234,8.64234,0,0,1-7.93367-5.21274h-.7066a8.64027,8.64027,0,0,0,17.28054,0h-.7066A8.64277,8.64277,0,0,1,83.643,77.2034Z"/><path class="cls-3" d="M48.89813,95.86022a3.034,3.034,0,0,0-.22517,1.15007V97.753H82.53825v-.74246a3.03289,3.03289,0,0,0-.22516-1.15006h-33.415Z"/><path class="cls-5" d="M52.76332,91.97182a.65914.65914,0,0,0,1.31828,0,1.9243,1.9243,0,0,1,1.92206-1.922H75.20783a1.92414,1.92414,0,0,1,1.922,1.922.65914.65914,0,1,0,1.31828,0,3.24408,3.24408,0,0,0-3.24033-3.24033H56.00366a3.24408,3.24408,0,0,0-3.24033,3.24033Z"/><path class="cls-5" d="M79.4954,93.30829H51.71608a3.70638,3.70638,0,0,0-3.70225,3.70226v.74272a.659.659,0,0,0,.65914.65914H82.53825a.659.659,0,0,0,.65914-.65914v-.74272a3.706,3.706,0,0,0-3.702-3.70225Zm2.384,3.78584H49.3321v-.08358a2.38677,2.38677,0,0,1,2.384-2.384H79.4954a2.38677,2.38677,0,0,1,2.384,2.384Z"/><path class="cls-5" d="M63.63412,87.00481V66.04416a.65914.65914,0,1,0-1.31828,0V87.00481a.65914.65914,0,1,0,1.31828,0Z"/><path class="cls-5" d="M68.89538,87.00481V66.04416a.65914.65914,0,1,0-1.31828,0V87.00481a.65914.65914,0,0,0,1.31828,0Z"/><path class="cls-5" d="M92.94211,72.0041l.00027-.01371c0-.0145-.00343-.02821-.00422-.04271a.60862.60862,0,0,0-.00791-.0791c-.004-.02109-.01081-.04086-.01661-.06116-.00606-.02083-.01108-.0414-.019-.0617a.6675.6675,0,0,0-.03533-.07013c-.00711-.01292-.0116-.02637-.01977-.039L84.19876,58.07648l-.00422-.00528a.65808.65808,0,0,0-.09571-.11521c-.00923-.0087-.01952-.01582-.029-.024a.66039.66039,0,0,0-.091-.06591c-.01371-.00817-.02742-.01555-.04166-.02267a.647.647,0,0,0-.10124-.04008c-.01371-.00422-.02689-.00949-.04087-.01265a.65591.65591,0,0,0-.15186-.01925H72.00282a6.43085,6.43085,0,0,0-12.79391,0H47.5685a.65591.65591,0,0,0-.15186.01925c-.014.00316-.02689.00843-.0406.01265a.64064.64064,0,0,0-.10151.04034c-.01424.00712-.02795.0145-.0414.02241a.64178.64178,0,0,0-.09122.06591c-.00949.00818-.01978.015-.029.02373a.65807.65807,0,0,0-.09571.11522l-.00422.00527L38.37271,71.636c-.00791.01239-.01265.0261-.01977.03876a.64817.64817,0,0,0-.03533.07039c-.00791.02-.01292.04034-.01872.06064-.00606.02083-.01292.04113-.01714.06275a.63089.63089,0,0,0-.00764.07673c-.00106.015-.00449.02953-.00449.04482l.00027.0145v.00527a9.29916,9.29916,0,0,0,18.59828,0l.00027-.00527.00026-.0145c0-.01529-.00343-.02979-.00448-.04482a.6813.6813,0,0,0-.00765-.07673.629.629,0,0,0-.01713-.06275.61613.61613,0,0,0-.01872-.06037.67961.67961,0,0,0-.0356-.07066c-.00712-.01292-.0116-.02637-.01951-.03876L48.77,59.08971H59.20865a6.43085,6.43085,0,0,0,12.7939,0H82.44121l-7.99483,12.5466c-.00818.01265-.01266.02636-.01978.03928a.64423.64423,0,0,0-.03533.06987c-.00817.0203-.01318.04113-.01924.0617a.60155.60155,0,0,0-.01662.06143.61242.61242,0,0,0-.00791.07883c-.001.0145-.00422.02821-.00422.043l.00027.01371.00027.00659a9.29917,9.29917,0,0,0,18.59829,0v-.00659Zm-1.86035-.67285H76.20418L83.643,59.6571ZM47.56851,59.6571,55.0073,71.33125H40.12973Zm0,20.31469a7.99209,7.99209,0,0,1-7.95423-7.32225H55.523A7.99252,7.99252,0,0,1,47.56851,79.97179ZM65.60574,63.54286A5.11229,5.11229,0,1,1,70.718,58.43057,5.118,5.118,0,0,1,65.60574,63.54286ZM83.643,79.97179a7.9917,7.9917,0,0,1-7.95423-7.32225H91.59721A7.99172,7.99172,0,0,1,83.643,79.97179Z"/><path class="cls-4" d="M68.94837,57.72371,67.464,58.80233a.3778.3778,0,0,0-.1371.42237l.56686,1.74514a.37779.37779,0,0,1-.58136.42238L65.828,60.31387a.37789.37789,0,0,0-.44426,0l-1.48438,1.07835a.37779.37779,0,0,1-.58136-.42238l.56686-1.74514a.37738.37738,0,0,0-.13736-.42237L62.2631,57.72371a.37793.37793,0,0,1,.222-.68366h1.83478a.378.378,0,0,0,.35937-.261l.56686-1.74514a.37789.37789,0,0,1,.71872,0l.56686,1.74514a.378.378,0,0,0,.35937.261h1.83478a.378.378,0,0,1,.22252.68366Z"/><path class="cls-3" d="M121.28257,174.01251H95.07308a.54937.54937,0,1,1,0-1.09873h26.20949a.54937.54937,0,0,1,0,1.09873Z"/><path class="cls-3" d="M108.17826,149.88642a8.64809,8.64809,0,0,1-8.56788-7.26215.54942.54942,0,1,1,1.08423-.17865,7.58627,7.58627,0,0,0,14.95676.06153.5494.5494,0,1,1,1.08269.18744,8.66149,8.66149,0,0,1-8.5558,7.19183Z"/><path class="cls-5" d="M121.28257,164.83857a.54936.54936,0,0,0-.54936.54936v9.831h-5.56616v-7.92556a.54937.54937,0,1,0-1.09873,0v7.92556H102.288v-7.92556a.54936.54936,0,1,0-1.09872,0v7.92556H95.62244V163.005a6.23594,6.23594,0,0,1,6.22913-6.2289h12.65317a.54937.54937,0,0,0,0-1.09873H101.85157a7.33619,7.33619,0,0,0-7.32785,7.32763v12.76326a.54936.54936,0,0,0,.54936.54937h26.20949a.54937.54937,0,0,0,.54936-.54937V165.38793A.54936.54936,0,0,0,121.28257,164.83857Z"/><path class="cls-5" d="M108.17826,152.08388a8.68369,8.68369,0,1,0-8.68368-8.68369v.00022A8.69336,8.69336,0,0,0,108.17826,152.08388Zm0-16.26842a7.585,7.585,0,1,1-7.58495,7.58495h0A7.59351,7.59351,0,0,1,108.17826,135.81546Z"/><path class="cls-8" d="M125.12328,160.501H123.1047a.54937.54937,0,0,1-.54937-.54936v-2.16647h-2.16647a.54937.54937,0,0,1-.54936-.54937v-2.01836a.54936.54936,0,0,1,.54936-.54936h2.16647v-2.1667a.54937.54937,0,0,1,.54937-.54936h2.01858a.54937.54937,0,0,1,.54937.54936v2.1667h2.16625a.54936.54936,0,0,1,.54936.54936v2.01836a.54937.54937,0,0,1-.54936.54937h-2.16625v2.16647A.54937.54937,0,0,1,125.12328,160.501Zm-1.46922-1.09873h.91986v-2.16647a.54936.54936,0,0,1,.54936-.54936h2.16625v-.91964h-2.16625a.54936.54936,0,0,1-.54936-.54936h0v-2.16669h-.91986v2.16669a.54936.54936,0,0,1-.54936.54936h-2.16647v.91964h2.16647a.54936.54936,0,0,1,.54936.54936Z"/><path class="cls-8" d="M124.11377,164.11275A7.88623,7.88623,0,1,1,132,156.22652v.00022A7.895,7.895,0,0,1,124.11377,164.11275Zm0-14.67351a6.7875,6.7875,0,1,0,6.7875,6.7875,6.7875,6.7875,0,0,0-6.7875-6.7875Z"/><path class="cls-3" d="M156.35039,32.18045H142.51065a.64961.64961,0,0,1,0-1.29922h13.83974a.64961.64961,0,0,1,0,1.29922Z"/><path class="cls-3" d="M133.37485,32.18045h-5.81476a.64961.64961,0,1,1,0-1.29922h5.81476a.64961.64961,0,0,1,0,1.29922Z"/><path class="cls-3" d="M120.99361,32.14069h-7.02147a.64961.64961,0,1,1,0-1.29921h7.02147a.64961.64961,0,0,1,0,1.29921Z"/><path class="cls-3" d="M105.32717,32.14069h-5.2748a.64961.64961,0,1,1,0-1.29921h5.2748a.64961.64961,0,1,1,0,1.29921Z"/><path class="cls-3" d="M109.64966,36.9101a2.56023,2.56023,0,1,1,2.56023-2.56023h0A2.56309,2.56309,0,0,1,109.64966,36.9101Zm0-3.82124a1.261,1.261,0,1,0,1.261,1.261h0A1.26257,1.26257,0,0,0,109.64966,33.08886Z"/><path class="cls-3" d="M137.95925,36.92517a2.78811,2.78811,0,1,1,2.78785-2.78836v.00051A2.79121,2.79121,0,0,1,137.95925,36.92517Zm0-4.27675a1.4889,1.4889,0,1,0,1.48864,1.48916v-.00026A1.49072,1.49072,0,0,0,137.95925,32.64842Z"/><path class="cls-5" d="M109.64966,40.18152a5.83165,5.83165,0,1,0-5.83139-5.83216,5.83166,5.83166,0,0,0,5.83139,5.83216Zm0-10.36382a4.53244,4.53244,0,1,1-4.53218,4.53269v-.001A4.53712,4.53712,0,0,1,109.64966,29.8177Z"/><path class="cls-5" d="M100.05133,13.10384h18.52158a1.77343,1.77343,0,0,1,1.72874,1.39353h-4.264a.64961.64961,0,0,0-.64961.64961v6.9378a.64961.64961,0,0,0,.64961.64961H120.344v8.9825a1.98494,1.98494,0,0,1-1.9826,1.9826h-.96661a.64961.64961,0,1,0,0,1.29921h.96661a3.2857,3.2857,0,0,0,3.28181-3.28181V14.87441a3.07342,3.07342,0,0,0-3.0703-3.06979H100.05133a.64961.64961,0,0,0,0,1.29922Zm16.63591,8.33133V15.79659H120.344v5.63858Z"/><path class="cls-5" d="M100.05133,34.73626h1.59621a.64961.64961,0,1,0,0-1.29922h-1.59621a.64961.64961,0,1,0,0,1.29922Z"/><path class="cls-5" d="M137.95925,28.35608a5.78124,5.78124,0,1,0,5.7802,5.78228v-.0013A5.78748,5.78748,0,0,0,137.95925,28.35608Zm0,10.26379a4.482,4.482,0,1,1,4.481-4.48307v.00026a4.48722,4.48722,0,0,1-4.481,4.482Z"/><path class="cls-5" d="M156.35039,33.22683h-10.546a.64961.64961,0,0,0,0,1.29922h10.546a.64961.64961,0,0,0,0-1.29922Z"/><path class="cls-5" d="M128.77018,34.999h1.54814a.64961.64961,0,0,0,0-1.29921h-1.54815a.56126.56126,0,0,1-.56048-.56048V29.1117l1.24257-.3526a2.65041,2.65041,0,0,0,1.91894-2.5397V24.197l10.27989-2.44044a.64957.64957,0,0,0,.40925-.30168L146.995,13.1041h9.35434a.64961.64961,0,0,0,0-1.29921H146.6237a.64961.64961,0,0,0-.55918.31908l-4.98274,8.43241-12.74165,3.02483a1.8532,1.8532,0,0,0-1.42913,1.80955V33.14a1.862,1.862,0,0,0,1.85917,1.85892Zm-.12993-10.15439,1.43148-.33987v1.715a1.346,1.346,0,0,1-.97441,1.2896l-.88789.252V25.391a.55841.55841,0,0,1,.43108-.54593Z"/><path class="cls-5" d="M114.05893,22.08478V15.147a.6496.6496,0,0,0-.64961-.6496h-9.87714a.6496.6496,0,0,0-.64961.6496v6.9378a.64961.64961,0,0,0,.64961.64961h9.87714A.64961.64961,0,0,0,114.05893,22.08478Zm-1.29922-.64961h-8.57792V15.79659h8.57792Z"/><path class="cls-5" d="M156.35039,43.88558H100.05133a.64961.64961,0,1,0,0,1.29921h56.29906a.64961.64961,0,1,0,0-1.29921Z"/><path class="cls-5" d="M156.35039,14.49738h-8.32172a.64959.64959,0,0,0-.56645.331l-3.36055,5.97638a.64961.64961,0,0,0,.56646.96817h11.68226A.64961.64961,0,0,0,157,21.12336V15.147A.6496.6496,0,0,0,156.35039,14.49738Zm-.6496,5.97638h-9.92236l2.63039-4.67717h7.292Z"/><path class="cls-5" d="M154.63154,25.76051a.64961.64961,0,0,0,0-1.29921h-2.23933a.64961.64961,0,0,0,0,1.29921Z"/><path class="cls-7" d="M131.48787,19.17454a.64958.64958,0,0,1-.4594-.19046l-4.76889-4.76837a.6496.6496,0,0,1,0-.91855l4.76889-4.76889a.6496.6496,0,0,1,1.10874.4594v2.39341h6.799a.64961.64961,0,0,1,.6496.64961v3.45149a.6496.6496,0,0,1-.6496.6496h-6.799v2.39315a.64961.64961,0,0,1-.6496.64961Zm-3.85035-5.41823,3.20048,3.20074V15.48218a.64961.64961,0,0,1,.64961-.64961h6.799V12.6803h-6.799a.64961.64961,0,0,1-.64961-.64961V10.55582Z"/><path class="cls-3" d="M158.10636,163.81182l.51785-.51786a2.58878,2.58878,0,1,1,3.66092,3.66125l-.307.307.00134.00034,2.51707-2.51673a2.5805,2.5805,0,0,1,1.84339-.758l-12.42751-12.42785-3.04634,3.04634,4.73692,4.73693Z"/><path class="cls-3" d="M180.56454,176.599l-1.28691-1.28725-.09807.12594a2.5896,2.5896,0,0,1-2.82436,3.632l-.28075.361.82917.82917a2.58866,2.58866,0,1,0,3.66091-3.66092Z"/><path class="cls-3" d="M184.90183,173.61244l-.097.02351a2.08786,2.08786,0,0,0-1.34166,1.09851,2.58916,2.58916,0,0,1-.579.74085,2.64835,2.64835,0,0,1-3.61088-.1696l-.263-.26262-.001.00034,2.23127,2.22993a2.58878,2.58878,0,0,0,3.66126-3.66092Z"/><path class="cls-3" d="M189.00639,174.05373a2.59069,2.59069,0,0,1-3.64379.02015l-1.90082-1.90082a2.59636,2.59636,0,0,0,4.1509-.74891,1.74525,1.74525,0,0,1,1.25938-1.0075l.13433-.02351a2.58839,2.58839,0,0,1,0,3.66058Z"/><path class="cls-3" d="M193.46961,171.19579a2.58637,2.58637,0,0,1-3.66058,0l-1.84036-1.84037a2.58192,2.58192,0,0,0,4.11731-.806,1.67254,1.67254,0,0,1,1.32654-1.0075l.05709-.00672a2.08121,2.08121,0,0,1,.18135.20486,2.59266,2.59266,0,0,1-.18135,3.45573Z"/><path class="cls-3" d="M162.28547,166.95522l-.11217.11217Z"/><path class="cls-3" d="M162.1733,167.06739a2.58866,2.58866,0,0,1-3.66159-3.66025l-2.48887,2.48886a2.58878,2.58878,0,1,0,3.66092,3.66126Z"/><path class="cls-3" d="M169.3111,178.23721a2.58884,2.58884,0,0,1-.08732-3.56924c-.03123.02821-.06179.05743-.092.08765l-2.3102,2.3102a2.58866,2.58866,0,0,0,3.66092,3.66092l2.31053-2.3102c.03023-.03022.05911-.06078.08765-.092A2.58956,2.58956,0,0,1,169.3111,178.23721Z"/><path class="cls-3" d="M165.05542,171.50878a2.58866,2.58866,0,0,1-3.66092-3.66092L158.905,170.3374a2.58878,2.58878,0,0,0,3.66092,3.66125Z"/><path class="cls-3" d="M170.63026,173.25646l.00033-.00034-1.91425,1.91425a2.58866,2.58866,0,0,1-3.66092-3.66092l1.91358-1.91358-4.40345,4.40345a2.58878,2.58878,0,0,0,3.66092,3.66126Z"/><path class="cls-3" d="M156.2052,149.26721l-6.588,6.58771a.59086.59086,0,0,1-.83555,0l-7.28692-7.28691a.59085.59085,0,0,1,0-.83556l6.58805-6.588Z"/><path class="cls-3" d="M200.864,154.90955l-4.95488-4.95489,8.1228-8.1228,4.95489,4.95488a.59087.59087,0,0,1,0,.83556l-7.28692,7.28691A.591.591,0,0,1,200.864,154.90955Z"/><path class="cls-3" d="M196.76246,150.808l-.85335-.85335-10.0834,10.0834,4.80645,4.80644,4.88638-7.54416,3.86813-3.86813Z"/><path class="cls-5" d="M209.58021,146.19333l-16.71308-16.71309a1.4302,1.4302,0,0,0-2.02306,0l-7.28691,7.28691a1.4302,1.4302,0,0,0,0,2.02306l.40938.40939-4.18818,4.18817h-5.40087a3.58662,3.58662,0,0,0-2.55267,1.05721l-.00739.00739-2.49927-.98332-3.06381-3.06381.66931-.66932a1.4306,1.4306,0,0,0,0-2.02339l-7.28691-7.28692a1.4302,1.4302,0,0,0-2.02306,0L140.9006,147.1387a1.432,1.432,0,0,0,0,2.02306l7.28692,7.28691a1.43182,1.43182,0,0,0,2.02306,0l.65521-.65521,4.06123,4.06124,1.03638,1.84976a.83973.83973,0,0,0,1.46524-.82077l-1.09313-1.95119a.83763.83763,0,0,0-.1387-.183l-4.14318-4.14318,13.01355-13.01388,3.18739,3.18739a.84206.84206,0,0,0,.28613.18774l1.98209.7798-5.84485,5.84451a3.46137,3.46137,0,1,0,4.86623,4.92365l5.78607-5.78574,14.70816,14.70817a.83829.83829,0,0,0,.59376.24582.78184.78184,0,0,0,.08832-.0047.839.839,0,0,0,.61626-.37848l4.83835-7.46927,3.21191-3.21192.88358.88358a1.43181,1.43181,0,0,0,2.02305,0l7.28692-7.28657a1.429,1.429,0,0,0-.00034-2.02306Zm-67.31613,1.9569,16.36147-16.36147,6.935,6.9353-16.36113,16.36146Zm52.6607,8.5567a.855.855,0,0,0-.11116.137l-4.32218,6.67267-14.56778-14.56778a.84.84,0,0,0-1.18751,0l-6.37983,6.37983a1.78246,1.78246,0,1,1-2.49154-2.54931l6.75629-6.75629.00135-.00134.38923-.38923a1.9182,1.9182,0,0,1,1.36516-.56555h5.7488a.83958.83958,0,0,0,.59375-.24583l4.434-4.434,13.04545,13.04545Zm6.357-2.56678L184.9203,137.779l6.9353-6.93529,16.36113,16.36147Zm-29.57651,19.10053a3.421,3.421,0,0,0-2.29005-5.18426,3.42618,3.42618,0,0,0-5.51237-3.90406l-.12829.12829a3.42463,3.42463,0,0,0-5.74443-1.57976l-2.6017,2.6017a3.42405,3.42405,0,0,0,2.0422,5.82738,3.42265,3.42265,0,0,0,3.264,4.46491c.0816,0,.16321-.006.24482-.01176-.00571.08161-.01209.16355-.01209.24617a3.42606,3.42606,0,0,0,3.42852,3.42651,3.45744,3.45744,0,0,0,.84059-.1078,3.42636,3.42636,0,0,0,5.8388,2.17217l2.3102-2.3102v.00034a3.42661,3.42661,0,0,0-1.68018-5.76962Zm-15.08934-6.75126,2.60171-2.6017a1.7492,1.7492,0,1,1,2.47374,2.47375v.00034l-2.6017,2.6017a1.74933,1.74933,0,1,1-2.47375-2.47409Zm2.88246,6.91548a1.75179,1.75179,0,0,1-.00033-2.47408l5.592-5.59163a1.74921,1.74921,0,0,1,2.47375,2.47375l-5.592,5.592A1.75067,1.75067,0,0,1,159.49838,173.4049Zm3.66092,3.66126a1.75109,1.75109,0,0,1,0-2.47375l4.40345-4.40311a1.74932,1.74932,0,0,1,2.47408,2.47375l-4.40344,4.40311A1.7521,1.7521,0,0,1,163.1593,177.06616Zm9.03963.75629-2.3102,2.31054a1.7492,1.7492,0,0,1-2.47374-2.47375l2.31053-2.3102a1.749,1.749,0,1,1,2.47341,2.47342Zm22.12034-10.5905a3.42712,3.42712,0,0,1-2.67995,5.56241,3.43861,3.43861,0,0,1-1.06291-.16926,3.42128,3.42128,0,0,1-3.40031,3.02753,3.4589,3.4589,0,0,1-.68443-.06918,3.41889,3.41889,0,0,1-4.34535,3.15986,3.4284,3.4284,0,0,1-5.8361,2.11105l-.82918-.82917a.83981.83981,0,0,1,1.18785-1.1875l.82884.82917a1.74932,1.74932,0,0,0,2.47374-2.47409l-1.28691-1.28725v-.00033l-.26766-.26766a.8397.8397,0,0,1,1.18717-1.18785l2.23161,2.22994a1.74921,1.74921,0,0,0,2.47476-2.47275l-2.11407-2.11642a.83969.83969,0,0,1,1.19019-1.18482l2.11,2.11306.00034.00034.00067.00067.43994.44061a1.74992,1.74992,0,0,0,2.47678-2.47273l-2.13993-2.13993a.83957.83957,0,1,1,1.1875-1.18717l2.13792,2.13825.00134.001.00235.00235.8.80029a1.7472,1.7472,0,0,0,2.47139.00168,1.71139,1.71139,0,0,0,.50946-1.31512,1.7292,1.7292,0,0,0-.3852-1.0206,1.34009,1.34009,0,0,0-.12157-.1387.83969.83969,0,0,1,1.18616-1.18885,3.03262,3.03262,0,0,1,.25557.29117Z"/><path class="cls-6" d="M175.24058,128.71152a6.08228,6.08228,0,1,0,6.08227,6.08228,6.08225,6.08225,0,0,0-6.08227-6.08228Zm3.10948,4.98578-3.12527,3.59711a.83891.83891,0,0,1-.59677.28815l-.03694.00067a.839.839,0,0,1-.58268-.23508l-2.07914-2.00493a.83959.83959,0,1,1,1.16568-1.20866l1.44274,1.391,2.54528-2.92948a.83937.83937,0,1,1,1.26709,1.1012Z"/><path class="cls-3" d="M.86388,154.90955-4.091,149.95466l8.1228-8.1228,4.95489,4.95488a.59087.59087,0,0,1,0,.83556l-7.28692,7.28691A.59093.59093,0,0,1,.86388,154.90955Z"/><path class="cls-5" d="M9.58009,146.19333-7.133,129.48024a1.42018,1.42018,0,0,0-1.01153-.41912,1.42018,1.42018,0,0,0-1.01153.41912l-7.28691,7.28691a1.42076,1.42076,0,0,0-.41912,1.01153,1.42075,1.42075,0,0,0,.41912,1.01153l.40938.40939-4.18818,4.18817h-5.40087A3.58662,3.58662,0,0,0-28.1753,144.445l-.00739.00739-2.49927-.98332-3.06381-3.06381.66931-.66932a1.42151,1.42151,0,0,0,.41912-1.01186,1.42018,1.42018,0,0,0-.41912-1.01153l-7.28691-7.28692a1.42022,1.42022,0,0,0-1.01153-.41912,1.42079,1.42079,0,0,0-1.01153.41912L-59.09952,147.1387a1.432,1.432,0,0,0,0,2.02306l7.28692,7.28691a1.425,1.425,0,0,0,1.01153.41845,1.425,1.425,0,0,0,1.01153-.41845l.65521-.65521,4.06123,4.06124,1.03638,1.84976a.83957.83957,0,0,0,.73346.4292.83823.83823,0,0,0,.40972-.10713.83976.83976,0,0,0,.32206-1.14284l-1.09313-1.95119a.83763.83763,0,0,0-.1387-.183l-4.14318-4.14318,13.01355-13.01388,3.18739,3.18739a.84206.84206,0,0,0,.28613.18774l1.98209.7798-5.84485,5.84451a3.47843,3.47843,0,0,0-.46882,4.38867,3.47539,3.47539,0,0,0,2.55267,1.53274,3.44655,3.44655,0,0,0,2.78238-.99776l5.78607-5.78574,14.70817,14.70817a.83825.83825,0,0,0,.59375.24582.78184.78184,0,0,0,.08832-.0047.839.839,0,0,0,.61626-.37848L-3.825,157.8313l3.21191-3.21192.88358.88358a1.43181,1.43181,0,0,0,2.02305,0l7.28692-7.28657a1.429,1.429,0,0,0-.00034-2.02306Zm-67.31613,1.9569,16.36147-16.36147,6.935,6.9353-16.36113,16.36146Zm52.6607,8.5567a.855.855,0,0,0-.11116.137l-4.32218,6.67267-14.56778-14.56778a.839.839,0,0,0-.59375-.24583.839.839,0,0,0-.59376.24583l-6.37983,6.37983a1.77861,1.77861,0,0,1-1.43333.51349,1.78091,1.78091,0,0,1-1.3215-.79928,1.7963,1.7963,0,0,1,.26329-2.26352l6.7563-6.75629.00134-.00134.38923-.38923a1.9182,1.9182,0,0,1,1.36516-.56555h5.7488a.83958.83958,0,0,0,.59375-.24583l4.434-4.434L-1.8013,153.43256Zm6.357-2.56678L-15.07982,137.779l6.9353-6.93529L8.21661,147.2052Zm-29.57651,19.10053a3.43222,3.43222,0,0,0-.48125-4.23889,3.40789,3.40789,0,0,0-1.8088-.94537,3.431,3.431,0,0,0-.66394-3.90406,3.40629,3.40629,0,0,0-2.42439-1.00414,3.40547,3.40547,0,0,0-2.424,1.00414l-.12829.12829a3.40185,3.40185,0,0,0-.896-1.57976,3.4324,3.4324,0,0,0-4.84842,0l-2.6017,2.6017a3.432,3.432,0,0,0,0,4.84809,3.40882,3.40882,0,0,0,2.0422.97929,3.42959,3.42959,0,0,0,.83992,3.46244,3.41747,3.41747,0,0,0,2.42405,1.00247c.0816,0,.16321-.006.24482-.01176-.00571.08161-.01209.16355-.01209.24617a3.40443,3.40443,0,0,0,1.00447,2.424,3.41747,3.41747,0,0,0,2.424,1.00247,3.45744,3.45744,0,0,0,.84059-.1078,3.40845,3.40845,0,0,0,.99071,2.17217,3.41744,3.41744,0,0,0,2.424,1.00246,3.41688,3.41688,0,0,0,2.424-1.00246l2.3102-2.3102v.00034a3.40633,3.40633,0,0,0,1.00414-2.42438,3.405,3.405,0,0,0-1.00414-2.424,3.39613,3.39613,0,0,0-1.68018-.92119Zm-15.08934-6.75126,2.60171-2.6017a1.7445,1.7445,0,0,1,1.23687-.51147,1.74506,1.74506,0,0,1,1.23687.51147,1.73669,1.73669,0,0,1,.51249,1.23688,1.73782,1.73782,0,0,1-.51249,1.23687v.00034l-2.6017,2.6017a1.75178,1.75178,0,0,1-2.47408,0A1.7524,1.7524,0,0,1-43.3842,166.48942Zm2.88246,6.91548a1.75179,1.75179,0,0,1-.00033-2.47408l5.592-5.59163a1.7364,1.7364,0,0,1,1.23687-.51214,1.73757,1.73757,0,0,1,1.23688.51214,1.75109,1.75109,0,0,1,0,2.47375l-5.592,5.592A1.75067,1.75067,0,0,1-40.50174,173.4049Zm3.66092,3.66126a1.75109,1.75109,0,0,1,0-2.47375l4.40345-4.40311a1.74329,1.74329,0,0,1,1.23721-.51147,1.74368,1.74368,0,0,1,1.23687.51147,1.75107,1.75107,0,0,1,0,2.47375l-4.40344,4.40311A1.7521,1.7521,0,0,1-36.84082,177.06616Zm9.03963.75629-2.3102,2.31054a1.75167,1.75167,0,0,1-2.47374,0,1.75107,1.75107,0,0,1,0-2.47375l2.31053-2.3102a1.737,1.737,0,0,1,1.23687-.51214,1.73785,1.73785,0,0,1,1.23688.51248,1.7364,1.7364,0,0,1,.51214,1.23688,1.73632,1.73632,0,0,1-.51248,1.2362ZM-5.68085,167.232a3.38659,3.38659,0,0,1,.74152,1.98108,3.40664,3.40664,0,0,1-.99776,2.57651,3.39215,3.39215,0,0,1-2.42371,1.00482,3.43861,3.43861,0,0,1-1.06291-.16926A3.40843,3.40843,0,0,1-10.4,174.64749a3.41941,3.41941,0,0,1-2.42405,1.00514,3.4589,3.4589,0,0,1-.68443-.06918,3.41073,3.41073,0,0,1-.99574,2.284,3.40586,3.40586,0,0,1-2.424,1.00447,3.44452,3.44452,0,0,1-.92555-.12862,3.41214,3.41214,0,0,1-.98769,2.11071,3.41766,3.41766,0,0,1-2.42438,1.00247,3.41851,3.41851,0,0,1-2.424-1.00213l-.82918-.82917a.83965.83965,0,0,1,.00034-1.1875.83965.83965,0,0,1,1.18751,0l.82884.82917a1.75075,1.75075,0,0,0,2.47374-.00034,1.75107,1.75107,0,0,0,0-2.47375l-1.28691-1.28725v-.00033l-.26766-.26766a.83966.83966,0,0,1-.00034-1.18751.83966.83966,0,0,1,1.18751-.00034l2.23161,2.22994a1.73759,1.73759,0,0,0,1.23722.51281,1.73785,1.73785,0,0,0,1.23687-.51248,1.75087,1.75087,0,0,0,.00067-2.47308l-2.11407-2.11642a.84.84,0,0,1,.00269-1.1875.84.84,0,0,1,1.1875.00268l2.11,2.11306.00034.00034.00067.00067.43994.44061a1.76171,1.76171,0,0,0,1.2399.51316,1.74952,1.74952,0,0,0,1.23856-.51517,1.75047,1.75047,0,0,0-.00168-2.47072l-2.13993-2.13993a.84.84,0,0,1,0-1.18751.83965.83965,0,0,1,1.1875.00034l2.13792,2.13825.00134.001.00235.00235.8.80029a1.72942,1.72942,0,0,0,1.23687.51282,1.72588,1.72588,0,0,0,1.23452-.51114,1.71139,1.71139,0,0,0,.50946-1.31512,1.72913,1.72913,0,0,0-.3852-1.0206,1.34009,1.34009,0,0,0-.12157-.1387.83966.83966,0,0,1-.00134-1.18751.83965.83965,0,0,1,1.1875-.00134,3.03262,3.03262,0,0,1,.25557.29117Z"/><path class="cls-3" d="M26.48023,21.01587h42.107v2.37527h-42.107Z"/><path class="cls-6" d="M47.53386,19.33908a.6605.6605,0,0,1-.547-.29043c-.38557-.56951-9.44-14.03831-9.44-21.69924a9.99835,9.99835,0,0,1,9.987-9.987,9.99836,9.99836,0,0,1,9.987,9.987c0,7.66093-9.05443,21.12973-9.44,21.69924A.66053.66053,0,0,1,47.53386,19.33908Zm0-30.65536a8.67551,8.67551,0,0,0-8.66569,8.66569c0,6.21194,6.68313,17.04675,8.66569,20.12365,1.98229-3.07663,8.66569-13.91145,8.66569-20.12365a8.67551,8.67551,0,0,0-8.66569-8.66569Z"/><path class="cls-5" d="M59.31847-4.35725H70.78965a.66142.66142,0,0,1,.66067.66068V24.31608a.66068.66068,0,1,0,1.32135,0V-3.69657a1.98411,1.98411,0,0,0-1.982-1.982H59.31847a.66058.66058,0,0,0-.66068.66068.66058.66058,0,0,0,.66068.66067Z"/><path class="cls-5" d="M22.95672,24.97676a.66058.66058,0,0,0,.66067-.66068V-3.69658a.66159.66159,0,0,1,.66068-.66067H35.86791a.66057.66057,0,0,0,.66067-.66068.66056.66056,0,0,0-.66067-.66067H24.27807a1.98411,1.98411,0,0,0-1.982,1.982V24.31608A.66058.66058,0,0,0,22.95672,24.97676Z"/><path class="cls-5" d="M35.56479-1.05361a.66058.66058,0,0,0,.66068-.66067.66058.66058,0,0,0-.66068-.66068H26.48023a.66058.66058,0,0,0-.66067.66068V23.3914a.66058.66058,0,0,0,.66067.66068H68.58748a.66058.66058,0,0,0,.66068-.66068V-1.71428a.66058.66058,0,0,0-.66068-.66068H59.50292a.66057.66057,0,0,0-.66067.66068.66057.66057,0,0,0,.66067.66067H67.9268V22.73072H27.14091V-1.05361Z"/><path class="cls-5" d="M74.181,26.03384H20.88668a2.819,2.819,0,0,0,0,5.63794H74.181a2.819,2.819,0,0,0,0-5.63794Zm0,4.31659H20.88668a1.49762,1.49762,0,1,1,0-2.99524H74.181a1.49762,1.49762,0,0,1,0,2.99524Z"/><path class="cls-5" d="M47.53386,3.94163a6.17931,6.17931,0,0,0,6.1723-6.1723,6.17931,6.17931,0,0,0-6.1723-6.1723,6.17947,6.17947,0,0,0-6.1723,6.1723A6.17947,6.17947,0,0,0,47.53386,3.94163Zm0-11.02324A4.85628,4.85628,0,0,1,52.3848-2.23067a4.85628,4.85628,0,0,1-4.85094,4.851,4.85628,4.85628,0,0,1-4.85095-4.85095A4.85628,4.85628,0,0,1,47.53386-7.08161Z"/><path class="cls-6" d="M46.87213.5151a.66106.66106,0,0,1-.49551-.22357l-1.81316-2.0547a.661.661,0,0,1,.05814-.93261.66074.66074,0,0,1,.93261.05814l1.314,1.4889,2.70851-3.11681a.66031.66031,0,0,1,.93181-.06554.66065.66065,0,0,1,.06528.93208L47.3708.28756a.66088.66088,0,0,1-.496.22728L46.87212.5151Z"/><path class="cls-6" d="M47.53386,219.339a.6605.6605,0,0,1-.547-.29043c-.38557-.5695-9.44-14.0383-9.44-21.69924a9.987,9.987,0,0,1,19.97408,0c0,7.66094-9.05443,21.12974-9.44,21.69924A.66053.66053,0,0,1,47.53386,219.339Zm0-30.65535a8.67551,8.67551,0,0,0-8.66569,8.66568c0,6.21194,6.68313,17.04676,8.66569,20.12366,1.98229-3.07663,8.66569-13.91145,8.66569-20.12366a8.67551,8.67551,0,0,0-8.66569-8.66569Z"/><path class="cls-5" d="M59.31847,195.64268H70.78965a.66142.66142,0,0,1,.66067.66067V224.316a.66068.66068,0,1,0,1.32135,0V196.30335a1.9841,1.9841,0,0,0-1.982-1.982H59.31847a.66068.66068,0,1,0,0,1.32135Z"/><path class="cls-5" d="M22.95672,224.97668a.66058.66058,0,0,0,.66067-.66067V196.30335a.6616.6616,0,0,1,.66068-.66068H35.86791a.66068.66068,0,0,0,0-1.32135H24.27807a1.98411,1.98411,0,0,0-1.982,1.982V224.316A.66058.66058,0,0,0,22.95672,224.97668Z"/><path class="cls-5" d="M35.56479,198.94632a.66068.66068,0,1,0,0-1.32135H26.48023a.66058.66058,0,0,0-.66067.66067v25.10569a.66058.66058,0,0,0,.66067.66067H68.58748a.66058.66058,0,0,0,.66068-.66067V198.28564a.66058.66058,0,0,0-.66068-.66067H59.50292a.66068.66068,0,0,0,0,1.32135H67.9268v23.78433H27.14091V198.94632Z"/><path class="cls-5" d="M47.53386,203.94156a6.1723,6.1723,0,1,0-6.1723-6.1723A6.17931,6.17931,0,0,0,47.53386,203.94156Zm0-11.02325a4.85095,4.85095,0,1,1-4.85095,4.851A4.85628,4.85628,0,0,1,47.53386,192.91831Z"/><path class="cls-6" d="M46.87213,200.515a.66107.66107,0,0,1-.49551-.22358l-1.81316-2.0547a.66074.66074,0,1,1,.99075-.87447l1.314,1.4889,2.70851-3.1168a.66051.66051,0,1,1,.99709.86654l-3.203,3.68657a.66087.66087,0,0,1-.496.22727l-.00264.00027Z"/></g></svg>